<mxfile host="app.diagrams.net" modified="2023-07-07T13:33:06.061Z" agent="Mozilla/5.0 (Windows NT 10.0; Win64; x64) AppleWebKit/537.36 (KHTML, like Gecko) Chrome/114.0.0.0 Safari/537.36" version="21.6.1" etag="CO3875mNyvwGZUx296sz" type="github">
  <diagram id="XWnj4zzchfMwUizUqxsu" name="Page-1">
    <mxGraphModel dx="1918" dy="1036" grid="1" gridSize="10" guides="1" tooltips="1" connect="1" arrows="1" fold="1" page="0" pageScale="1" pageWidth="1169" pageHeight="827" background="none" math="0" shadow="0">
      <root>
        <mxCell id="0" />
        <mxCell id="1" parent="0" />
        <mxCell id="node2" value="&lt;p style=&quot;margin:0px;margin-top:4px;text-align:center;&quot;&gt;&lt;b&gt;AudioAnalysis&lt;/b&gt;&lt;/p&gt;&lt;hr size=&quot;1&quot;&gt;&lt;p style=&quot;margin:0 0 0 4px;line-height:1.6;&quot;&gt;+ AudioAnalysis(): &lt;/p&gt;&lt;hr size=&quot;1&quot;&gt;&lt;p style=&quot;margin:0 0 0 4px;line-height:1.6;&quot;&gt;- fingerprintsDb: Map&amp;lt;Long, Set&amp;lt;ChunkDetail&amp;gt;&amp;gt;&lt;/p&gt;&lt;hr size=&quot;1&quot;&gt;&lt;p style=&quot;margin:0 0 0 4px;line-height:1.6;&quot;&gt;+ getMatchWithScores(Set&amp;lt;AudioMatch&amp;gt;): Map&amp;lt;String, Integer&amp;gt;&lt;br&gt;+ getMatchesAtTime(Set&amp;lt;AudioMatch&amp;gt;, double, double): Set&amp;lt;AudioMatch&amp;gt;&lt;br&gt;+ searchMatch(AudioSignal): Set&amp;lt;AudioMatch&amp;gt;&lt;br&gt;+ getMatchStat(Set&amp;lt;AudioMatch&amp;gt;): Map&amp;lt;String, Integer&amp;gt;&lt;br&gt;+ analyse(AudioSignal): Map&amp;lt;Long, Set&amp;lt;ChunkDetail&amp;gt;&amp;gt;&lt;br&gt;+ getAudiosWithOrderedChunksDetails(List&amp;lt;AudioSignal&amp;gt;): Map&amp;lt;String, List&amp;lt;ChunkDetail&amp;gt;&amp;gt;&lt;br&gt;+ loadAudioFingerprint(List&amp;lt;AudioSignal&amp;gt;): void&lt;br&gt;+ getBestMatchAtTime(Set&amp;lt;AudioMatch&amp;gt;, double, double): String?&lt;br&gt;+ evaluateSpectrogram(short[]): Complex[][]&lt;br&gt;+ getTimeOfSample(long, AudioFormat): double&lt;br&gt;+ getFrequencyRangeIndex(int): int&lt;br&gt;+ getTimestampOfChunk(long, AudioFormat): double&lt;br&gt;+ getBestMatch(Set&amp;lt;AudioMatch&amp;gt;): String&lt;/p&gt;" style="verticalAlign=top;align=left;overflow=fill;fontSize=14;fontFamily=Helvetica;html=1;rounded=0;shadow=0;comic=0;labelBackgroundColor=none;strokeWidth=1;" parent="1" vertex="1">
          <mxGeometry x="-190" y="330" width="616" height="440" as="geometry" />
        </mxCell>
        <mxCell id="node1" value="&lt;p style=&quot;margin:0px;margin-top:4px;text-align:center;&quot;&gt;&lt;b&gt;AudioMatch&lt;/b&gt;&lt;/p&gt;&lt;hr size=&quot;1&quot;/&gt;&lt;p style=&quot;margin:0 0 0 4px;line-height:1.6;&quot;&gt;+ AudioMatch(ChunkDetail, Set&amp;lt;ChunkDetail&amp;gt;): &lt;/p&gt;&lt;hr size=&quot;1&quot;/&gt;&lt;p style=&quot;margin:0 0 0 4px;line-height:1.6;&quot;&gt;- inputChunk: ChunkDetail&lt;br/&gt;- dbChunks: Set&amp;lt;ChunkDetail&amp;gt;&lt;/p&gt;&lt;hr size=&quot;1&quot;/&gt;&lt;p style=&quot;margin:0 0 0 4px;line-height:1.6;&quot;&gt;+ getDbChunks(): Set&amp;lt;ChunkDetail&amp;gt;&lt;br/&gt;+ getInputChunk(): ChunkDetail&lt;br/&gt;+ toString(): String&lt;/p&gt;" style="verticalAlign=top;align=left;overflow=fill;fontSize=14;fontFamily=Helvetica;html=1;rounded=0;shadow=0;comic=0;labelBackgroundColor=none;strokeWidth=1;" parent="1" vertex="1">
          <mxGeometry x="-300" y="-38.5" width="336" height="240" as="geometry" />
        </mxCell>
        <mxCell id="node0" value="&lt;p style=&quot;margin:0px;margin-top:4px;text-align:center;&quot;&gt;&lt;b&gt;AudioSignal&lt;/b&gt;&lt;/p&gt;&lt;hr size=&quot;1&quot;&gt;&lt;p style=&quot;margin:0 0 0 4px;line-height:1.6;&quot;&gt;+ AudioSignal(String, short[], AudioFormat): &lt;/p&gt;&lt;hr size=&quot;1&quot;&gt;&lt;p style=&quot;margin:0 0 0 4px;line-height:1.6;&quot;&gt;- name: String&lt;br&gt;- samples: short[]&lt;br&gt;- spectrogram: Complex[][]&lt;br&gt;- format: AudioFormat&lt;br&gt;- fingerprint: Map&amp;lt;Long, Set&amp;lt;ChunkDetail&amp;gt;&amp;gt;&lt;/p&gt;&lt;hr size=&quot;1&quot;&gt;&lt;p style=&quot;margin:0 0 0 4px;line-height:1.6;&quot;&gt;+ toString(): String&lt;br&gt;+ getFingerprint(): Map&amp;lt;Long, Set&amp;lt;ChunkDetail&amp;gt;&amp;gt;&lt;br&gt;+ getSpectrogram(): Complex[][]&lt;br&gt;+ getSamples(): short[]&lt;br&gt;+ getName(): String&lt;br&gt;+ getFormat(): AudioFormat&lt;br&gt;+ getAudioDuration(): double&lt;/p&gt;" style="verticalAlign=top;align=left;overflow=fill;fontSize=14;fontFamily=Helvetica;html=1;rounded=0;shadow=0;comic=0;labelBackgroundColor=none;strokeWidth=1;" parent="1" vertex="1">
          <mxGeometry x="640" y="-105" width="320" height="370" as="geometry" />
        </mxCell>
        <mxCell id="node3" value="&lt;p style=&quot;margin:0px;margin-top:4px;text-align:center;&quot;&gt;&lt;b&gt;ChunkDetail&lt;/b&gt;&lt;/p&gt;&lt;hr size=&quot;1&quot;&gt;&lt;p style=&quot;margin:0 0 0 4px;line-height:1.6;&quot;&gt;+ ChunkDetail(double[], double[], double, long, String): &lt;/p&gt;&lt;hr size=&quot;1&quot;&gt;&lt;p style=&quot;margin:0 0 0 4px;line-height:1.6;&quot;&gt;+ index: long&lt;br&gt;+ time: double&lt;br&gt;+ relatedFrequency: double[]&lt;br&gt;+ chunkHash: long&lt;br&gt;+ highScores: double[]&lt;br&gt;+ name: String&lt;/p&gt;&lt;hr size=&quot;1&quot;&gt;&lt;p style=&quot;margin:0 0 0 4px;line-height:1.6;&quot;&gt;+ isInTimeTimeWindow(double, double): boolean&lt;br&gt;+ equals(Object): boolean&lt;br&gt;+ hash(long, long, long, long): long&lt;br&gt;&lt;br&gt;&lt;/p&gt;" style="verticalAlign=top;align=left;overflow=fill;fontSize=14;fontFamily=Helvetica;html=1;rounded=0;shadow=0;comic=0;labelBackgroundColor=none;strokeWidth=1;" parent="1" vertex="1">
          <mxGeometry x="139" y="-70" width="385" height="300" as="geometry" />
        </mxCell>
        <mxCell id="node4" value="&lt;p style=&quot;margin:0px;margin-top:4px;text-align:center;&quot;&gt;&lt;b&gt;FileExplorer&lt;/b&gt;&lt;/p&gt;&lt;hr size=&quot;1&quot;&gt;&lt;p style=&quot;margin:0 0 0 4px;line-height:1.6;&quot;&gt;+ FileExplorer(): &lt;/p&gt;&lt;hr size=&quot;1&quot;&gt;&lt;p style=&quot;margin:0 0 0 4px;line-height:1.6;&quot;&gt;+ DIR_MANUALLY_PLAYED: String&lt;br&gt;+ DIR_GAME_RECORDS: String&lt;br&gt;+ DELETE_AUDIO_ONCE_FINISHED: boolean&lt;br&gt;+ DIR_GAME_SOUNDS: String&lt;br&gt;+ DIR_SONG_DB: String&lt;br&gt;+ DIR_GAME_RECORDS_SAVED: String&lt;br&gt;+ DIR_SONG_RECORDS: String&lt;br&gt;+ DIR_SONGS: String&lt;br&gt;+ DIR_BASE_AUDIO_RES: String&lt;/p&gt;&lt;hr size=&quot;1&quot;&gt;&lt;p style=&quot;margin:0 0 0 4px;line-height:1.6;&quot;&gt;+ readWavFile(String, String): AudioSignal&lt;br style=&quot;border-color: var(--border-color);&quot;&gt;+ readAllSoundsInFolder(String): List&amp;lt;AudioSignal&amp;gt;&lt;br&gt;+ listFilesUsingFilesList(String): List&amp;lt;String&amp;gt;&lt;/p&gt;&lt;p style=&quot;margin:0 0 0 4px;line-height:1.6;&quot;&gt;+ deleteFilesInFolder(String): void&lt;br&gt;# getShortsFromByteArray(byte[], boolean): short[]&lt;br&gt;# getShortFromTwoBytes(byte, byte): short&lt;/p&gt;" style="verticalAlign=top;align=left;overflow=fill;fontSize=14;fontFamily=Helvetica;html=1;rounded=0;shadow=0;comic=0;labelBackgroundColor=none;strokeWidth=1;" parent="1" vertex="1">
          <mxGeometry x="570" y="330" width="358" height="440" as="geometry" />
        </mxCell>
        <mxCell id="edge0" value="" style="html=1;rounded=1;edgeStyle=orthogonalEdgeStyle;dashed=1;startArrow=none;endArrow=openThin;endSize=12;strokeColor=#595959;exitX=0.168;exitY=0.000;exitDx=0;exitDy=0;entryX=0.500;entryY=1.000;entryDx=0;entryDy=0;" parent="1" source="node2" target="node1" edge="1">
          <mxGeometry width="50" height="50" relative="1" as="geometry">
            <Array as="points" />
          </mxGeometry>
        </mxCell>
        <mxCell id="label2" value="«create»" style="edgeLabel;resizable=0;html=1;align=left;verticalAlign=top;strokeColor=default;" parent="edge0" vertex="1" connectable="0">
          <mxGeometry x="-110" y="240" as="geometry" />
        </mxCell>
        <mxCell id="edge1" value="" style="html=1;rounded=1;edgeStyle=orthogonalEdgeStyle;dashed=1;startArrow=none;endArrow=openThin;endSize=12;strokeColor=#595959;exitX=0.759;exitY=0.000;exitDx=0;exitDy=0;entryX=0.750;entryY=1.000;entryDx=0;entryDy=0;" parent="1" source="node2" target="node3" edge="1">
          <mxGeometry width="50" height="50" relative="1" as="geometry">
            <Array as="points">
              <mxPoint x="319" y="309" />
              <mxPoint x="428" y="309" />
            </Array>
          </mxGeometry>
        </mxCell>
        <mxCell id="label8" value="«create»" style="edgeLabel;resizable=0;html=1;align=left;verticalAlign=top;strokeColor=default;" parent="edge1" vertex="1" connectable="0">
          <mxGeometry x="378" y="286" as="geometry" />
        </mxCell>
        <mxCell id="edge3" value="" style="html=1;rounded=1;edgeStyle=orthogonalEdgeStyle;dashed=1;startArrow=none;endArrow=openThin;endSize=12;strokeColor=#595959;entryX=0.468;entryY=0.996;entryDx=0;entryDy=0;entryPerimeter=0;" parent="1" source="node4" target="node0" edge="1">
          <mxGeometry width="50" height="50" relative="1" as="geometry">
            <Array as="points">
              <mxPoint x="765" y="310" />
              <mxPoint x="790" y="310" />
            </Array>
            <mxPoint x="765" y="300" as="targetPoint" />
          </mxGeometry>
        </mxCell>
        <mxCell id="label20" value="«create»" style="edgeLabel;resizable=0;html=1;align=left;verticalAlign=top;strokeColor=default;" parent="edge3" vertex="1" connectable="0">
          <mxGeometry x="712" y="292" as="geometry" />
        </mxCell>
        <mxCell id="RITHrEZ79DsZb8qW1Qol-2" value="" style="endArrow=none;html=1;rounded=0;entryX=1;entryY=0.5;entryDx=0;entryDy=0;exitX=0;exitY=0.5;exitDx=0;exitDy=0;" edge="1" parent="1" source="node3" target="node1">
          <mxGeometry width="50" height="50" relative="1" as="geometry">
            <mxPoint x="310" y="200" as="sourcePoint" />
            <mxPoint x="360" y="150" as="targetPoint" />
          </mxGeometry>
        </mxCell>
        <mxCell id="RITHrEZ79DsZb8qW1Qol-3" value="*" style="edgeLabel;html=1;align=center;verticalAlign=middle;resizable=0;points=[];" vertex="1" connectable="0" parent="RITHrEZ79DsZb8qW1Qol-2">
          <mxGeometry x="0.6413" y="-1" relative="1" as="geometry">
            <mxPoint x="-14" y="-10" as="offset" />
          </mxGeometry>
        </mxCell>
        <mxCell id="RITHrEZ79DsZb8qW1Qol-5" value="inputChunk" style="edgeLabel;html=1;align=center;verticalAlign=middle;resizable=0;points=[];" vertex="1" connectable="0" parent="RITHrEZ79DsZb8qW1Qol-2">
          <mxGeometry x="0.0702" y="1" relative="1" as="geometry">
            <mxPoint y="-12" as="offset" />
          </mxGeometry>
        </mxCell>
        <mxCell id="RITHrEZ79DsZb8qW1Qol-10" value="1" style="edgeLabel;html=1;align=center;verticalAlign=middle;resizable=0;points=[];" vertex="1" connectable="0" parent="RITHrEZ79DsZb8qW1Qol-2">
          <mxGeometry x="-0.6151" y="-1" relative="1" as="geometry">
            <mxPoint x="11" y="-10" as="offset" />
          </mxGeometry>
        </mxCell>
        <mxCell id="RITHrEZ79DsZb8qW1Qol-6" value="" style="endArrow=none;html=1;rounded=0;entryX=1;entryY=0.75;entryDx=0;entryDy=0;exitX=-0.001;exitY=0.652;exitDx=0;exitDy=0;exitPerimeter=0;" edge="1" parent="1" source="node3" target="node1">
          <mxGeometry width="50" height="50" relative="1" as="geometry">
            <mxPoint x="149" y="92" as="sourcePoint" />
            <mxPoint x="46" y="92" as="targetPoint" />
          </mxGeometry>
        </mxCell>
        <mxCell id="RITHrEZ79DsZb8qW1Qol-7" value="*" style="edgeLabel;html=1;align=center;verticalAlign=middle;resizable=0;points=[];" vertex="1" connectable="0" parent="RITHrEZ79DsZb8qW1Qol-6">
          <mxGeometry x="0.6413" y="-1" relative="1" as="geometry">
            <mxPoint x="-14" y="-10" as="offset" />
          </mxGeometry>
        </mxCell>
        <mxCell id="RITHrEZ79DsZb8qW1Qol-8" value="dbChunk" style="edgeLabel;html=1;align=center;verticalAlign=middle;resizable=0;points=[];" vertex="1" connectable="0" parent="RITHrEZ79DsZb8qW1Qol-6">
          <mxGeometry x="0.0702" y="1" relative="1" as="geometry">
            <mxPoint y="-12" as="offset" />
          </mxGeometry>
        </mxCell>
        <mxCell id="RITHrEZ79DsZb8qW1Qol-13" value="+" style="edgeLabel;html=1;align=center;verticalAlign=middle;resizable=0;points=[];" vertex="1" connectable="0" parent="RITHrEZ79DsZb8qW1Qol-6">
          <mxGeometry x="-0.7319" relative="1" as="geometry">
            <mxPoint x="5" y="-13" as="offset" />
          </mxGeometry>
        </mxCell>
        <mxCell id="RITHrEZ79DsZb8qW1Qol-14" value="" style="endArrow=none;html=1;rounded=0;exitX=0.5;exitY=0;exitDx=0;exitDy=0;" edge="1" parent="1" source="node2" target="node3">
          <mxGeometry width="50" height="50" relative="1" as="geometry">
            <mxPoint x="200" y="260" as="sourcePoint" />
            <mxPoint x="250" y="210" as="targetPoint" />
          </mxGeometry>
        </mxCell>
        <mxCell id="RITHrEZ79DsZb8qW1Qol-15" value="*" style="edgeLabel;html=1;align=center;verticalAlign=middle;resizable=0;points=[];" vertex="1" connectable="0" parent="RITHrEZ79DsZb8qW1Qol-14">
          <mxGeometry x="-0.601" relative="1" as="geometry">
            <mxPoint y="15" as="offset" />
          </mxGeometry>
        </mxCell>
        <mxCell id="RITHrEZ79DsZb8qW1Qol-16" value="Text" style="edgeLabel;html=1;align=center;verticalAlign=middle;resizable=0;points=[];" vertex="1" connectable="0" parent="RITHrEZ79DsZb8qW1Qol-14">
          <mxGeometry x="0.0961" y="-3" relative="1" as="geometry">
            <mxPoint y="1" as="offset" />
          </mxGeometry>
        </mxCell>
        <mxCell id="RITHrEZ79DsZb8qW1Qol-17" value="fingerprintsDb" style="edgeLabel;html=1;align=center;verticalAlign=middle;resizable=0;points=[];" vertex="1" connectable="0" parent="RITHrEZ79DsZb8qW1Qol-14">
          <mxGeometry x="0.0835" y="-4" relative="1" as="geometry">
            <mxPoint as="offset" />
          </mxGeometry>
        </mxCell>
        <mxCell id="RITHrEZ79DsZb8qW1Qol-18" value="*" style="edgeLabel;html=1;align=center;verticalAlign=middle;resizable=0;points=[];" vertex="1" connectable="0" parent="RITHrEZ79DsZb8qW1Qol-14">
          <mxGeometry x="0.7715" y="-2" relative="1" as="geometry">
            <mxPoint x="14" y="1" as="offset" />
          </mxGeometry>
        </mxCell>
        <mxCell id="RITHrEZ79DsZb8qW1Qol-19" value="" style="endArrow=none;html=1;rounded=0;entryX=1;entryY=0.5;entryDx=0;entryDy=0;exitX=0;exitY=0.5;exitDx=0;exitDy=0;" edge="1" parent="1" source="node0" target="node3">
          <mxGeometry width="50" height="50" relative="1" as="geometry">
            <mxPoint x="200" y="260" as="sourcePoint" />
            <mxPoint x="250" y="210" as="targetPoint" />
          </mxGeometry>
        </mxCell>
        <mxCell id="RITHrEZ79DsZb8qW1Qol-23" value="fingerprint" style="edgeLabel;html=1;align=center;verticalAlign=middle;resizable=0;points=[];" vertex="1" connectable="0" parent="RITHrEZ79DsZb8qW1Qol-19">
          <mxGeometry x="0.0316" relative="1" as="geometry">
            <mxPoint y="-11" as="offset" />
          </mxGeometry>
        </mxCell>
        <mxCell id="RITHrEZ79DsZb8qW1Qol-24" value="+" style="edgeLabel;html=1;align=center;verticalAlign=middle;resizable=0;points=[];" vertex="1" connectable="0" parent="RITHrEZ79DsZb8qW1Qol-19">
          <mxGeometry x="0.7118" relative="1" as="geometry">
            <mxPoint x="-11" y="-11" as="offset" />
          </mxGeometry>
        </mxCell>
        <mxCell id="RITHrEZ79DsZb8qW1Qol-25" value="*" style="edgeLabel;html=1;align=center;verticalAlign=middle;resizable=0;points=[];" vertex="1" connectable="0" parent="RITHrEZ79DsZb8qW1Qol-19">
          <mxGeometry x="-0.7759" y="-1" relative="1" as="geometry">
            <mxPoint x="3" y="-10" as="offset" />
          </mxGeometry>
        </mxCell>
      </root>
    </mxGraphModel>
  </diagram>
</mxfile>
